<svg xmlns="http://www.w3.org/2000/svg" xmlns:xlink="http://www.w3.org/1999/xlink" viewBox="0 0 380.03 96.41"><defs><style>.cls-1{fill:none;}.cls-2{fill:#475886;}.cls-3{clip-path:url(#clip-path);}.cls-4{fill:#485a87;}.cls-5{fill:#8ca5d0;}.cls-6{fill:#8ba4cf;}.cls-7{fill:#91aad1;}.cls-8{fill:#a7bdd7;}.cls-9{fill:#89a2cf;}.cls-10{fill:#869fce;}.cls-11{fill:#9cb3d4;}.cls-12{fill:#88a2cf;}.cls-13{fill:#97afd3;}.cls-14{fill:#839cce;}.cls-15{fill:#91a9d1;}.cls-16{fill:#8da5d0;}.cls-17{fill:#839ccd;}.cls-18{fill:#93abd1;}.cls-19{fill:#87a0ce;}.cls-20{fill:#a0b7d6;}.cls-21{fill:#a8bed6;}.cls-22{fill:#88a0cf;}.cls-23{fill:#9db4d5;}.cls-24{fill:#93abd2;}.cls-25{fill:#9eb5d4;}.cls-26{fill:#859dce;}.cls-27{fill:#a4bad6;}.cls-28{fill:#86a0ce;}.cls-29{fill:#8ca4d0;}.cls-30{fill:#9eb4d5;}.cls-31{fill:#8ea7d1;}.cls-32{fill:#8da6d0;}.cls-33{fill:#7e98cb;}.cls-34{fill:#819bcc;}.cls-35{fill:#7e99cb;}.cls-36{fill:#829bcd;}.cls-37{fill:#9eb5d5;}.cls-38{fill:#a4bbd6;}.cls-39{fill:#a9bfd7;}.cls-40{fill:#99b0d3;}.cls-41{fill:#98afd3;}.cls-42{fill:#94acd1;}.cls-43{fill:#aac1d7;}.cls-44{fill:#aac0d7;}.cls-45{fill:#abc1d6;}.cls-46{fill:#a5bcd5;}.cls-47{fill:#a7bdd6;}.cls-48{fill:#95add2;}.cls-49{fill:#92abd1;}.cls-50{fill:#99b1d3;}.cls-51{fill:#a3bad5;}.cls-52{fill:#a1b8d5;}.cls-53{fill:#9fb6d5;}.cls-54{fill:#9bb3d4;}.cls-55{fill:#a1b8d6;}</style><clipPath id="clip-path" transform="translate(-0.71 -0.4)"><rect class="cls-1" width="90.31" height="96.05"/></clipPath></defs><g id="Layer_2" data-name="Layer 2"><g id="Camada_1" data-name="Camada 1"><path class="cls-2" d="M97.21,13.56h27.25v5.38a7.67,7.67,0,0,0-2.34-.35h-12.6V34.37h13.24a6.14,6.14,0,0,0,1.7-.28v5.45a8.21,8.21,0,0,0-2.48-.29H109.52V55.32h12.25a9.87,9.87,0,0,0,2.69-.36v5.81H97.28a7.27,7.27,0,0,0,.36-2.34V15.9A5.62,5.62,0,0,0,97.21,13.56Z" transform="translate(-0.71 -0.4)"/><path class="cls-2" d="M131.25,22.69h11.11v4.25q3.75-5.24,10.9-5.24,5.38,0,8.32,2.8t2.94,7.89v26a8.21,8.21,0,0,0,.07,1.24,4.14,4.14,0,0,0,.35,1.1H153.05a6.85,6.85,0,0,0,.36-2.34V34.58q0-5.23-4.86-5.24A5.6,5.6,0,0,0,144.3,31a6.42,6.42,0,0,0-1.58,4.63V58.43a9,9,0,0,0,.28,2.34H131.25a7.27,7.27,0,0,0,.36-2.34V25A7.27,7.27,0,0,0,131.25,22.69Z" transform="translate(-0.71 -0.4)"/><path class="cls-2" d="M173.65,65.3l-2.34-7.72,7.15-5.23a13.53,13.53,0,0,1-5.52-5.42,18.61,18.61,0,0,1-1.63-8.5q0-7.59,4.53-12T188.16,22h3.75a12.06,12.06,0,0,0,2.3-3.07,9.17,9.17,0,0,0,.53-3.51h9.41a10.17,10.17,0,0,1-1.27,4.07,22.94,22.94,0,0,1-3.75,3.93,19.61,19.61,0,0,1,6.3,6.39,17.46,17.46,0,0,1,1.91,8.58,16.73,16.73,0,0,1-4.18,11.72Q199,54.68,192,54.68a24,24,0,0,0-3.08.11,5,5,0,0,0-1.31.53l-5.73,3.33q4.38-1.07,7.32-1.49a38.19,38.19,0,0,1,5.35-.43q6.51,0,10.26,2.06c2.5,1.37,3.75,3.25,3.75,5.66q0,4-4.21,6.16t-12.21,2.12a51.1,51.1,0,0,1-8.35-.64,94.8,94.8,0,0,1-10.34-2.48V68.2a58.85,58.85,0,0,0,6.77,1.41,41.1,41.1,0,0,0,5.9.43,16,16,0,0,0,6.06-.92c1.43-.61,2.15-1.51,2.15-2.69s-.79-2.05-2.37-2.76a15.67,15.67,0,0,0-6.33-1.06,29.79,29.79,0,0,0-6.09.49A29.54,29.54,0,0,0,173.65,65.3Zm15.64-38.08q-6.3,0-6.3,10.58,0,11.72,6.16,11.71,6.36,0,6.37-11.35Q195.52,27.23,189.29,27.22Z" transform="translate(-0.71 -0.4)"/><path class="cls-2" d="M244.56,51.92l1.21,6.23a38.63,38.63,0,0,1-6.87,2.62,27.66,27.66,0,0,1-6.65.71q-9.7,0-15-5t-5.31-14.37q0-9.55,4.88-15t13.59-5.45q17.19,0,17.2,20H223.4q0,7.86,2.55,11.39T234,56.52a12.86,12.86,0,0,0,5.06-1A24.55,24.55,0,0,0,244.56,51.92ZM223.4,36.63h12.53q0-5.37-1.47-7.75A4.9,4.9,0,0,0,230,26.51a5,5,0,0,0-4.48,2.41C224.49,30.52,223.78,33.09,223.4,36.63Z" transform="translate(-0.71 -0.4)"/><path class="cls-2" d="M264.66,57.58V69.12a5.6,5.6,0,0,0,.43,2.33H253.2a5.21,5.21,0,0,0,.28-1.3c.05-.5.07-.84.07-1V25a7.56,7.56,0,0,0-.35-2.34h11V26.8q4-5.1,9.65-5.1a11.71,11.71,0,0,1,10,5.1q3.69,5.09,3.7,14.08,0,9.48-3.83,15a12.05,12.05,0,0,1-10.47,5.53,12.25,12.25,0,0,1-4.85-.85A11,11,0,0,1,264.66,57.58ZM270.4,28a4.87,4.87,0,0,0-4.74,3q-1.43,3-1.42,10.05,0,8,1.31,11.36T270,55.74q6.09,0,6.09-14.65,0-6.86-1.38-10A4.57,4.57,0,0,0,270.4,28Z" transform="translate(-0.71 -0.4)"/><path class="cls-2" d="M293.68,9.88h11.75a8.53,8.53,0,0,0-.28,2.34V58.43a7.56,7.56,0,0,0,.35,2.34H293.68a7.27,7.27,0,0,0,.36-2.34V12.22A7.27,7.27,0,0,0,293.68,9.88Z" transform="translate(-0.71 -0.4)"/><path class="cls-2" d="M335.44,60.77V56.52a15.9,15.9,0,0,1-4.88,3.82,14.21,14.21,0,0,1-5.88,1.07q-5.44,0-8.42-2.84c-2-1.88-3-4.55-3-8V25a7.27,7.27,0,0,0-.36-2.34h11.82A7.12,7.12,0,0,0,324.4,25V48.59a5.62,5.62,0,0,0,1.27,3.9,4.63,4.63,0,0,0,3.61,1.41A5.56,5.56,0,0,0,335,48.17V25a6.86,6.86,0,0,0-.35-2.34h11.82A4.88,4.88,0,0,0,346.2,24c-.05.5-.07.84-.07,1v33.4a7.67,7.67,0,0,0,.35,2.34Z" transform="translate(-0.71 -0.4)"/><path class="cls-2" d="M351.79,58.15l1.62-6.58a30.06,30.06,0,0,0,6,3.78,12.93,12.93,0,0,0,5.17,1,6.55,6.55,0,0,0,4.28-1.31,4.23,4.23,0,0,0,1.59-3.43q0-2.34-2.83-3.89l-1.06-.5-5.31-2.12a15.5,15.5,0,0,1-6.62-4.43,10.32,10.32,0,0,1-2-6.54,11.15,11.15,0,0,1,4.17-9q4.19-3.47,11-3.47a25.39,25.39,0,0,1,5.06.5,62.74,62.74,0,0,1,6.76,1.91L378,30.26a26.21,26.21,0,0,0-4.91-2.83,11.63,11.63,0,0,0-4.36-.85,6.77,6.77,0,0,0-4.21,1.21A3.85,3.85,0,0,0,363,31a2.86,2.86,0,0,0,1.34,2.73,36.88,36.88,0,0,0,4,1.77q2.65,1,5.35,2a11.57,11.57,0,0,1,4.88,3.68,10.89,10.89,0,0,1,2.19,7.08q0,6.22-4.21,9.7c-2.8,2.31-6.76,3.47-11.85,3.47a24.72,24.72,0,0,1-6-.64A43,43,0,0,1,351.79,58.15Z" transform="translate(-0.71 -0.4)"/><path class="cls-2" d="M107.06,90.77l.35,1.81a11.29,11.29,0,0,1-2,.76,7.86,7.86,0,0,1-1.93.21,6.11,6.11,0,0,1-4.36-1.46,5.49,5.49,0,0,1-1.54-4.18A6.29,6.29,0,0,1,99,83.56,5,5,0,0,1,103,82q5,0,5,5.8h-7a5.73,5.73,0,0,0,.74,3.31,2.69,2.69,0,0,0,2.34,1,3.6,3.6,0,0,0,1.47-.28A7.33,7.33,0,0,0,107.06,90.77Zm-6.14-4.44h3.63a4.52,4.52,0,0,0-.42-2.25,1.56,1.56,0,0,0-2.6,0A5.32,5.32,0,0,0,100.92,86.33Z" transform="translate(-0.71 -0.4)"/><path class="cls-2" d="M109.63,82.28h3.23v1.23A3.67,3.67,0,0,1,116,82a3.36,3.36,0,0,1,2.41.81,3,3,0,0,1,.85,2.3v7.56a3.21,3.21,0,0,0,0,.36,1.35,1.35,0,0,0,.11.32H116a2,2,0,0,0,.11-.68V85.73c0-1-.47-1.52-1.41-1.52a1.61,1.61,0,0,0-1.24.49A1.89,1.89,0,0,0,113,86v6.62a2.43,2.43,0,0,0,.09.68h-3.42a2.11,2.11,0,0,0,.11-.68V83A2.11,2.11,0,0,0,109.63,82.28Z" transform="translate(-0.71 -0.4)"/><path class="cls-2" d="M122,94.66l-.68-2.24,2.07-1.53a3.9,3.9,0,0,1-1.6-1.57,5.35,5.35,0,0,1-.47-2.47,4.68,4.68,0,0,1,1.31-3.49,4.9,4.9,0,0,1,3.58-1.29h1.09a3.64,3.64,0,0,0,.67-.89,2.67,2.67,0,0,0,.15-1h2.74a3.15,3.15,0,0,1-.37,1.19,7.4,7.4,0,0,1-1.09,1.14,5.62,5.62,0,0,1,1.83,1.85,5.11,5.11,0,0,1,.55,2.5,4.85,4.85,0,0,1-1.21,3.4,4.17,4.17,0,0,1-3.25,1.33,7.13,7.13,0,0,0-.89,0,1.42,1.42,0,0,0-.38.16l-1.67,1c.85-.2,1.56-.35,2.13-.43a11.17,11.17,0,0,1,1.55-.12,6.35,6.35,0,0,1,3,.59,1.82,1.82,0,0,1,1.09,1.65,1.94,1.94,0,0,1-1.22,1.79,8.15,8.15,0,0,1-3.55.61,15.37,15.37,0,0,1-2.42-.18,25.75,25.75,0,0,1-3-.72V95.5a16.45,16.45,0,0,0,2,.41,12.51,12.51,0,0,0,1.71.12,4.6,4.6,0,0,0,1.76-.26q.63-.27.63-.78t-.69-.81a4.68,4.68,0,0,0-1.84-.3,8.41,8.41,0,0,0-1.77.14A8.53,8.53,0,0,0,122,94.66Zm4.54-11.06c-1.22,0-1.83,1-1.83,3.07,0,2.27.6,3.4,1.79,3.4s1.85-1.1,1.85-3.3S127.7,83.6,126.49,83.6Z" transform="translate(-0.71 -0.4)"/><path class="cls-2" d="M142.54,90.77l.35,1.81a11.29,11.29,0,0,1-2,.76,7.86,7.86,0,0,1-1.93.21,6.11,6.11,0,0,1-4.36-1.46,5.49,5.49,0,0,1-1.54-4.18,6.29,6.29,0,0,1,1.41-4.35,5,5,0,0,1,4-1.59q5,0,5,5.8h-7a5.73,5.73,0,0,0,.74,3.31,2.69,2.69,0,0,0,2.34,1,3.6,3.6,0,0,0,1.47-.28A7.33,7.33,0,0,0,142.54,90.77Zm-6.14-4.44H140a4.5,4.5,0,0,0-.43-2.25,1.42,1.42,0,0,0-1.3-.69,1.44,1.44,0,0,0-1.3.7A5.32,5.32,0,0,0,136.4,86.33Z" transform="translate(-0.71 -0.4)"/><path class="cls-2" d="M145.11,82.28h3.23v1.23A3.67,3.67,0,0,1,151.51,82a3.36,3.36,0,0,1,2.41.81,3,3,0,0,1,.86,2.3v7.56a1.84,1.84,0,0,0,0,.36,1.28,1.28,0,0,0,.1.32h-3.45a2.27,2.27,0,0,0,.1-.68V85.73c0-1-.47-1.52-1.41-1.52a1.61,1.61,0,0,0-1.24.49,1.89,1.89,0,0,0-.45,1.34v6.62a2.44,2.44,0,0,0,.08.68h-3.42a2.11,2.11,0,0,0,.11-.68V83A2.11,2.11,0,0,0,145.11,82.28Z" transform="translate(-0.71 -0.4)"/><path class="cls-2" d="M157.08,78.56h3.43a2,2,0,0,0-.1.68v4.13a3.72,3.72,0,0,1,3.08-1.4,3.35,3.35,0,0,1,2.4.81,3,3,0,0,1,.85,2.28v7.6a2.2,2.2,0,0,0,.1.68h-3.43a2,2,0,0,0,.1-.68V85.92c0-1.15-.46-1.73-1.39-1.73a1.64,1.64,0,0,0-1.26.48,1.81,1.81,0,0,0-.45,1.31v6.68a2.11,2.11,0,0,0,.1.68h-3.43a2.2,2.2,0,0,0,.1-.68V79.24A2,2,0,0,0,157.08,78.56Z" transform="translate(-0.71 -0.4)"/><path class="cls-2" d="M178.58,91.26v1.61a4.86,4.86,0,0,1-1.07.52,3.33,3.33,0,0,1-1,.14,2.84,2.84,0,0,1-1.39-.28,2,2,0,0,1-.78-1,3.91,3.91,0,0,1-2.92,1.28,2.9,2.9,0,0,1-2.22-.87,3.21,3.21,0,0,1-.83-2.32,2.93,2.93,0,0,1,.87-2.43,6.55,6.55,0,0,1,1.35-.88,20.64,20.64,0,0,1,2-.66c1-.3,1.56-.79,1.56-1.48a1.19,1.19,0,0,0-.48-1,2.14,2.14,0,0,0-1.31-.36,3.3,3.3,0,0,0-1.25.21,7.43,7.43,0,0,0-1.38.84l-.39-1.81a14.8,14.8,0,0,1,2.11-.61,10,10,0,0,1,1.9-.17q4,0,4,2.75v6c0,.5.18.74.55.74A1.27,1.27,0,0,0,178.58,91.26Zm-4.4-1.33V87.19c-.14.09-.31.18-.52.29l-1.3.64a1.82,1.82,0,0,0-1,1.83c0,1,.44,1.56,1.31,1.56a1.41,1.41,0,0,0,1.05-.45A1.56,1.56,0,0,0,174.18,89.93Z" transform="translate(-0.71 -0.4)"/><path class="cls-2" d="M179.83,82.28h3.23v1.17a2.39,2.39,0,0,1,.94-1.14,3.62,3.62,0,0,1,1.72-.32v2.35l-.54,0c-1.34,0-2,.72-2,2.15v6.19a2,2,0,0,0,.1.68h-3.44a2.11,2.11,0,0,0,.11-.68V83A2,2,0,0,0,179.83,82.28Z" transform="translate(-0.71 -0.4)"/><path class="cls-2" d="M188.78,79.28c1.15,0,1.72.38,1.72,1.13s-.58,1.15-1.74,1.15-1.67-.38-1.67-1.15a.94.94,0,0,1,.45-.82A2.17,2.17,0,0,1,188.78,79.28Zm-1.69,3h3.44a2.11,2.11,0,0,0-.11.68v9.68a2.88,2.88,0,0,0,.08.68h-3.41a2.11,2.11,0,0,0,.1-.68V83A2,2,0,0,0,187.09,82.3Z" transform="translate(-0.71 -0.4)"/><path class="cls-2" d="M202.3,91.26v1.61a5,5,0,0,1-1.06.52,3.42,3.42,0,0,1-1,.14,2.88,2.88,0,0,1-1.4-.28,2.11,2.11,0,0,1-.78-1,3.89,3.89,0,0,1-2.92,1.28,2.91,2.91,0,0,1-2.22-.87,3.21,3.21,0,0,1-.82-2.32,3,3,0,0,1,.86-2.43A7.14,7.14,0,0,1,194.3,87a20.64,20.64,0,0,1,2-.66c1-.3,1.57-.79,1.57-1.48a1.2,1.2,0,0,0-.49-1,2.11,2.11,0,0,0-1.3-.36,3.35,3.35,0,0,0-1.26.21,7.1,7.1,0,0,0-1.37.84l-.39-1.81a14.36,14.36,0,0,1,2.1-.61,10.09,10.09,0,0,1,1.9-.17q4,0,4,2.75v6c0,.5.19.74.56.74A1.24,1.24,0,0,0,202.3,91.26Zm-4.39-1.33V87.19c-.14.09-.32.18-.53.29l-1.29.64a1.83,1.83,0,0,0-1,1.83q0,1.56,1.32,1.56a1.37,1.37,0,0,0,1-.45A1.57,1.57,0,0,0,197.91,89.93Z" transform="translate(-0.71 -0.4)"/><path class="cls-2" d="M218.79,90.77l.35,1.81a11.29,11.29,0,0,1-2,.76,7.86,7.86,0,0,1-1.93.21,6.09,6.09,0,0,1-4.36-1.46,5.49,5.49,0,0,1-1.55-4.18,6.29,6.29,0,0,1,1.42-4.35,5,5,0,0,1,4-1.59q5,0,5,5.8h-7a5.73,5.73,0,0,0,.74,3.31,2.69,2.69,0,0,0,2.34,1,3.6,3.6,0,0,0,1.47-.28A7.33,7.33,0,0,0,218.79,90.77Zm-6.14-4.44h3.63a4.52,4.52,0,0,0-.42-2.25,1.56,1.56,0,0,0-2.6,0A5.32,5.32,0,0,0,212.65,86.33Z" transform="translate(-0.71 -0.4)"/><path class="cls-2" d="M235.65,91v1.93a10.21,10.21,0,0,1-1.58.51,8.15,8.15,0,0,1-1.57.13A5.17,5.17,0,0,1,228.56,92a6.71,6.71,0,0,1,.1-8.43A5.58,5.58,0,0,1,232.85,82a9.51,9.51,0,0,1,2.8.48v2a4.12,4.12,0,0,0-2.41-1,2.3,2.3,0,0,0-2.05,1.11,7.25,7.25,0,0,0,0,6.26,2.26,2.26,0,0,0,2,1.08,3.06,3.06,0,0,0,1.12-.2A7.71,7.71,0,0,0,235.65,91Z" transform="translate(-0.71 -0.4)"/><path class="cls-2" d="M242,82a5,5,0,0,1,3.87,1.52,7.15,7.15,0,0,1,0,8.47A5,5,0,0,1,242,93.53,4.92,4.92,0,0,1,238.16,92a6.25,6.25,0,0,1-1.38-4.33,5.84,5.84,0,0,1,1.4-4.16A5,5,0,0,1,242,82Zm0,1.34a1.52,1.52,0,0,0-1.46,1,9.19,9.19,0,0,0-.45,3.37,9.25,9.25,0,0,0,.45,3.38,1.51,1.51,0,0,0,2.89,0,9.06,9.06,0,0,0,.46-3.35,14.24,14.24,0,0,0-.14-2,7.54,7.54,0,0,0-.45-1.72A1.27,1.27,0,0,0,242.06,83.33Z" transform="translate(-0.71 -0.4)"/><path class="cls-2" d="M249.13,82.28h3.23v1.23A3.67,3.67,0,0,1,255.53,82a3.36,3.36,0,0,1,2.41.81,3,3,0,0,1,.85,2.3v7.56a1.73,1.73,0,0,0,0,.36,1,1,0,0,0,.1.32h-3.46a2,2,0,0,0,.11-.68V85.73c0-1-.47-1.52-1.41-1.52a1.61,1.61,0,0,0-1.24.49,1.89,1.89,0,0,0-.46,1.34v6.62a2.43,2.43,0,0,0,.09.68h-3.42a2.11,2.11,0,0,0,.11-.68V83A2.11,2.11,0,0,0,249.13,82.28Z" transform="translate(-0.71 -0.4)"/><path class="cls-2" d="M260.44,92.58l.47-1.91a8.94,8.94,0,0,0,1.75,1.1,3.79,3.79,0,0,0,1.5.3,1.94,1.94,0,0,0,1.25-.38,1.27,1.27,0,0,0,.46-1,1.32,1.32,0,0,0-.82-1.13l-.31-.15-1.54-.61a4.51,4.51,0,0,1-1.93-1.29,3,3,0,0,1-.58-1.9A3.22,3.22,0,0,1,261.9,83a4.84,4.84,0,0,1,3.19-1,7.19,7.19,0,0,1,1.47.15,18.43,18.43,0,0,1,2,.55l-.45,1.79a7.72,7.72,0,0,0-1.43-.82,3.27,3.27,0,0,0-1.27-.25,2,2,0,0,0-1.22.35,1.12,1.12,0,0,0-.46.95.83.83,0,0,0,.39.79,11.46,11.46,0,0,0,1.16.51l1.55.59a3.31,3.31,0,0,1,1.42,1.07,3.1,3.1,0,0,1,.64,2,3.46,3.46,0,0,1-1.22,2.82,5.31,5.31,0,0,1-3.45,1,7.16,7.16,0,0,1-1.74-.19A11.56,11.56,0,0,1,260.44,92.58Z" transform="translate(-0.71 -0.4)"/><path class="cls-2" d="M276.89,93.34V92.11a4.89,4.89,0,0,1-1.42,1.11,4.22,4.22,0,0,1-1.71.31,3.43,3.43,0,0,1-2.45-.83,3.07,3.07,0,0,1-.86-2.32V83a2.11,2.11,0,0,0-.1-.68h3.43a2,2,0,0,0-.1.68V89.8a1.6,1.6,0,0,0,.37,1.13,1.32,1.32,0,0,0,1.05.42,1.61,1.61,0,0,0,1.19-.48,1.58,1.58,0,0,0,.47-1.19V83a2,2,0,0,0-.1-.68h3.43a1.42,1.42,0,0,0-.08.38c0,.14,0,.25,0,.3v9.7a2.2,2.2,0,0,0,.1.68Z" transform="translate(-0.71 -0.4)"/><path class="cls-2" d="M282.29,78.56h3.42a2.29,2.29,0,0,0-.09.68V92.66a2.11,2.11,0,0,0,.11.68h-3.44a2.11,2.11,0,0,0,.11-.68V79.24A2.06,2.06,0,0,0,282.29,78.56Z" transform="translate(-0.71 -0.4)"/><path class="cls-2" d="M288.19,83.72h-1.38V82.28h1.38V80.61l3.29-.32-.06.74v1.25H293v1.44h-1.58V91c0,.55.23.82.69.82a1.82,1.82,0,0,0,.89-.31v1.54a7.94,7.94,0,0,1-1.17.37,4.6,4.6,0,0,1-1,.11c-1.75,0-2.63-.72-2.63-2.14Z" transform="translate(-0.71 -0.4)"/><path class="cls-2" d="M299.33,82a5,5,0,0,1,3.87,1.52,7.11,7.11,0,0,1,0,8.47,5.62,5.62,0,0,1-7.75,0,6.25,6.25,0,0,1-1.38-4.33,5.88,5.88,0,0,1,1.4-4.16A5,5,0,0,1,299.33,82Zm0,1.34a1.51,1.51,0,0,0-1.46,1,8.94,8.94,0,0,0-.46,3.37,9,9,0,0,0,.46,3.38,1.5,1.5,0,0,0,2.88,0,9,9,0,0,0,.47-3.35,12.84,12.84,0,0,0-.15-2,6.63,6.63,0,0,0-.45-1.72A1.26,1.26,0,0,0,299.36,83.33Z" transform="translate(-0.71 -0.4)"/><path class="cls-2" d="M306.43,82.28h3.22v1.17a2.39,2.39,0,0,1,.94-1.14,3.65,3.65,0,0,1,1.72-.32v2.35l-.54,0c-1.34,0-2,.72-2,2.15v6.19a2,2,0,0,0,.1.68h-3.43a2.11,2.11,0,0,0,.1-.68V83A2,2,0,0,0,306.43,82.28Z" transform="translate(-0.71 -0.4)"/><path class="cls-2" d="M315.37,79.28c1.15,0,1.73.38,1.73,1.13s-.59,1.15-1.75,1.15-1.67-.38-1.67-1.15a.93.93,0,0,1,.46-.82A2.11,2.11,0,0,1,315.37,79.28Zm-1.69,3h3.44A2.11,2.11,0,0,0,317,83v9.68a2.43,2.43,0,0,0,.09.68h-3.42a2.11,2.11,0,0,0,.11-.68V83A2,2,0,0,0,313.68,82.3Z" transform="translate(-0.71 -0.4)"/><path class="cls-2" d="M328.9,91.26v1.61a5.08,5.08,0,0,1-1.07.52,3.42,3.42,0,0,1-1,.14,2.88,2.88,0,0,1-1.4-.28,2.11,2.11,0,0,1-.78-1,3.89,3.89,0,0,1-2.92,1.28,2.91,2.91,0,0,1-2.22-.87,3.21,3.21,0,0,1-.82-2.32,3,3,0,0,1,.86-2.43,7.14,7.14,0,0,1,1.35-.88,20.21,20.21,0,0,1,2.05-.66c1-.3,1.56-.79,1.56-1.48a1.17,1.17,0,0,0-.49-1,2.11,2.11,0,0,0-1.3-.36,3.39,3.39,0,0,0-1.26.21,7.1,7.1,0,0,0-1.37.84l-.39-1.81a14.36,14.36,0,0,1,2.1-.61A10.12,10.12,0,0,1,323.7,82q4,0,4,2.75v6c0,.5.19.74.56.74A1.27,1.27,0,0,0,328.9,91.26Zm-4.4-1.33V87.19a5.78,5.78,0,0,1-.53.29l-1.29.64a1.83,1.83,0,0,0-1,1.83q0,1.56,1.32,1.56a1.41,1.41,0,0,0,1.05-.45A1.6,1.6,0,0,0,324.5,89.93Z" transform="translate(-0.71 -0.4)"/><path class="cls-2" d="M344.23,93.34h-7.79a2.11,2.11,0,0,0,.1-.68V80.31a2.07,2.07,0,0,0-.1-.68h3.68a2,2,0,0,0-.1.68V91.76h3.39l.47,0a2.55,2.55,0,0,0,.35-.11Z" transform="translate(-0.71 -0.4)"/><path class="cls-2" d="M345.65,83.72h-1.38V82.28h1.38V80.61l3.29-.32-.06.74v1.25h1.58v1.44h-1.58V91c0,.55.23.82.69.82a1.82,1.82,0,0,0,.89-.31v1.54a8.76,8.76,0,0,1-1.17.37,4.67,4.67,0,0,1-1,.11c-1.75,0-2.63-.72-2.63-2.14Z" transform="translate(-0.71 -0.4)"/><path class="cls-2" d="M358.27,93.34V92.11a4.75,4.75,0,0,1-1.3,1.11,3.32,3.32,0,0,1-1.47.31,2.91,2.91,0,0,1-2.57-1.07,7.3,7.3,0,0,1-1.07-2.32,9.53,9.53,0,0,1-.33-2.47,7,7,0,0,1,1.09-4.2,3.54,3.54,0,0,1,3-1.5,3.2,3.2,0,0,1,2.55,1.11V79.24a2,2,0,0,0-.1-.68h3.39a2.07,2.07,0,0,0-.1.68V92.66a2.2,2.2,0,0,0,.1.68Zm-1.58-9.7c-1.22,0-1.83,1.35-1.83,4.07a7.69,7.69,0,0,0,.44,2.94,1.41,1.41,0,0,0,1.27,1,1.42,1.42,0,0,0,1.35-.93,7.43,7.43,0,0,0,.43-3,9,9,0,0,0-.4-3.15A1.33,1.33,0,0,0,356.69,83.64Z" transform="translate(-0.71 -0.4)"/><path class="cls-2" d="M373.18,91.26v1.61a5.08,5.08,0,0,1-1.07.52,3.42,3.42,0,0,1-1,.14,2.88,2.88,0,0,1-1.4-.28,2.11,2.11,0,0,1-.78-1A3.89,3.89,0,0,1,366,93.53a2.91,2.91,0,0,1-2.22-.87,3.21,3.21,0,0,1-.82-2.32,3,3,0,0,1,.86-2.43,7.14,7.14,0,0,1,1.35-.88,20.21,20.21,0,0,1,2.05-.66c1-.3,1.56-.79,1.56-1.48a1.17,1.17,0,0,0-.49-1,2.11,2.11,0,0,0-1.3-.36,3.35,3.35,0,0,0-1.26.21,7.1,7.1,0,0,0-1.37.84L364,82.77a14.36,14.36,0,0,1,2.1-.61A10.09,10.09,0,0,1,368,82q4,0,4,2.75v6c0,.5.19.74.56.74A1.27,1.27,0,0,0,373.18,91.26Zm-4.4-1.33V87.19a5.78,5.78,0,0,1-.53.29l-1.29.64A1.83,1.83,0,0,0,366,90q0,1.56,1.32,1.56a1.41,1.41,0,0,0,1.05-.45A1.6,1.6,0,0,0,368.78,89.93Z" transform="translate(-0.71 -0.4)"/><path class="cls-2" d="M376.16,90.11a1.92,1.92,0,0,1,1.31.46,1.52,1.52,0,0,1,.52,1.22,1.62,1.62,0,0,1-.5,1.22,1.74,1.74,0,0,1-1.27.47,2,2,0,0,1-1.39-.46,1.56,1.56,0,0,1-.52-1.23,1.58,1.58,0,0,1,.51-1.2A1.88,1.88,0,0,1,376.16,90.11Z" transform="translate(-0.71 -0.4)"/><g class="cls-3"><path class="cls-4" d="M50.16.4q0,46.7,0,93.4c0,1.67-.24,2.42-2.13,2.25a45.71,45.71,0,0,0-6.62,0c-1.47.09-1.77-.47-1.74-1.83.07-4.37,0-8.74,0-13.11V.4Z" transform="translate(-0.71 -0.4)"/><path class="cls-4" d="M35.32.4l0,1.6a56.33,56.33,0,0,1,.49,7c-.08,2.19-.58,2.83-2.71,2.85a19.22,19.22,0,0,0-9.66,2.85A21.37,21.37,0,0,0,13.78,25.4c-2.64,5.33-2.45,10.88-1.3,16.5a12.17,12.17,0,0,0,1.08,3,29.17,29.17,0,0,0,1.54,2.93,18.33,18.33,0,0,0,3.21,4,19.11,19.11,0,0,0,3.77,3.24A23.71,23.71,0,0,0,31,58.65c4.86.38,4.84.38,4.88,5.44a21.08,21.08,0,0,1-.53,5.32c-.14,1.24-1.11.78-1.7.72C20.6,68.81,10.57,62.68,4.35,50.92.89,44.38.12,37.28,1.09,29.94A33.11,33.11,0,0,1,8.45,13.27,33.92,33.92,0,0,1,24.11,2.34,85,85,0,0,1,32.51.4Z" transform="translate(-0.71 -0.4)"/><path class="cls-4" d="M54.53,1.6C54.63.35,55.6.79,56.2.83A35.09,35.09,0,0,1,73.28,6.49,33.24,33.24,0,0,1,86.52,22.74a34.21,34.21,0,0,1,1.94,18.82A34.36,34.36,0,0,1,77,61.93c-6.38,5.46-13.76,8.68-22.38,8.25-1-3.36-.65-6.77-.37-10.17.47-.85,1.31-.83,2.09-.82a17.22,17.22,0,0,0,7.1-1.62,14.53,14.53,0,0,0,1.9-.93A21.49,21.49,0,0,0,75.91,45.45c.24-.55.57-1.05.78-1.61a9.71,9.71,0,0,0,.38-2,12,12,0,0,0,.82-3.79,5.87,5.87,0,0,0,.25-2c0-.2,0-.4,0-.59a5.69,5.69,0,0,0-.24-2,25.52,25.52,0,0,0-3.15-10,23.14,23.14,0,0,0-10.26-9.32,28.17,28.17,0,0,0-8.11-2.18c-.77-.09-1.64,0-2.12-.88A30.63,30.63,0,0,1,54.53,1.6Z" transform="translate(-0.71 -0.4)"/><path class="cls-4" d="M26.07,40.8c-2.74-.15-4.48-2.2-4.65-5a4.84,4.84,0,0,1,4.25-5.3c3-.54,6.11-.14,9.17-.18.43,0,.46.39.56.7.81,2.75.41,5.57.44,8.37A1.68,1.68,0,0,1,34,41.28C31.34,41.31,28.67,41.56,26.07,40.8Z" transform="translate(-0.71 -0.4)"/><path class="cls-5" d="M70.57,31.19a21.3,21.3,0,0,0-8-9.78c-1-1.59-2.75-2.19-4.36-2.92-.79-.36-1.62-.61-1.87-1.59,0-.95.56-1.25,1.27-1,1.21.49,2.61.62,3.52,1.73a1.81,1.81,0,0,0,1.3.72,1.23,1.23,0,0,1,.47.27c2.27,1.85,4.15,4.11,6.33,6.05s3.07,4.79,4.65,7.15c.41,1.44,1.23,2.85.3,4.38a1,1,0,0,1-.54.27,1.75,1.75,0,0,1-1.09-.43,2.69,2.69,0,0,1-.49-1c-.08-1.25,0-2.52-.7-3.66C71.12,31,70.89,31.05,70.57,31.19Z" transform="translate(-0.71 -0.4)"/><path class="cls-6" d="M27.33,21a27.86,27.86,0,0,0-5.55,4.85,14.27,14.27,0,0,0-4.28,7.33c-.45,1.23-.19,2.53-.26,3.79,0,.83-.4,1-.92,1.18-1.05,0-1.05-.81-1.13-1.54a9.62,9.62,0,0,1,.54-4.51c.35-.93.46-1.9.83-2.8.81-.85.91-2.11,1.64-3,1.16-1.33,2-2.9,3.79-3.72A7.74,7.74,0,0,0,24.93,20c1.37-1.93,3.48-2.57,5.62-3.13a1,1,0,0,1,1.23.43c0,1.09-.93,1.35-1.67,1.66A6.44,6.44,0,0,0,27.33,21Z" transform="translate(-0.71 -0.4)"/><path class="cls-7" d="M31.7,17.35a7.53,7.53,0,0,0-6.37,2.89,16.78,16.78,0,0,1-4,3.34,10.67,10.67,0,0,0-3.27,4.12c-.33.64-.45,1.41-1.2,1.76-.37.14-.52-.09-.64-.38.56-3.47,2.83-5.81,5.44-7.79a39,39,0,0,0,5.28-4.48,1.53,1.53,0,0,1,.67-.51,14.1,14.1,0,0,1,6.32-1.75c1.27-.05,1.75-.59,1.69-1.87-.07-1.54.12-3.08.12-4.63,0-.57-.35-1.43.72-1.56a6.7,6.7,0,0,0,.39,2.43c0,2.24.16,4.47,0,6.71-.24,1-1.07,1.06-1.88,1.1C33.88,16.8,32.88,17.55,31.7,17.35Z" transform="translate(-0.71 -0.4)"/><path class="cls-8" d="M22.86,14.48a17,17,0,0,1,10.6-3.21c1.44.08,1.9-.43,1.87-1.82,0-2.48,0-5,0-7.45l.7,3.27a66.68,66.68,0,0,0-.16,7.07c-.23,1.45-1.48,1.1-2.34,1.17a20.49,20.49,0,0,0-4.6.84c-1.95.5-3.76,1.54-5.86,1.43A.88.88,0,0,1,22.86,14.48Z" transform="translate(-0.71 -0.4)"/><path class="cls-9" d="M31.7,17.35a9.57,9.57,0,0,1,4.82-1.21c.62-2.14-.22-4.38.43-6.51.77,2.73.21,5.52.31,8.28,0,.8-.66.31-1,.44a5.66,5.66,0,0,1-2.55.14,2.84,2.84,0,0,0-2,.46L27.33,21c-.11-1.36,1.05-1.71,1.88-2.16A8.32,8.32,0,0,0,31.7,17.35Z" transform="translate(-0.71 -0.4)"/><path class="cls-10" d="M25,53.21c2.27,1.16,4.38,2.61,6.92,3.29a21.79,21.79,0,0,0,3.74.44c1.1.1,1.74.5,1.61,1.75-.25,2.36.46,4.78-.38,7.11-.91-1-.46-2.26-.56-3.41a17.79,17.79,0,0,0-.19-3.72c-1.59-.53-3.26-.41-4.88-.71a7,7,0,0,1-2.06-.75c-1.76-1.14-3.91-1.54-5.47-3.08-.41-.4-1.1-.53-.94-1.32a1,1,0,0,1,.84-.19C24.12,52.83,24.61,53,25,53.21Z" transform="translate(-0.71 -0.4)"/><path class="cls-11" d="M35.71,12.91c.21-2.54-.42-5.12.36-7.64l.39,1.22c-.74,2.2-.26,4.47-.31,6.7,0,1.25-.33,1.84-1.65,1.81-2.38,0-4.57.88-6.81,1.54-.41-.25-1,.07-1.35-.31s-.56-.9.29-1.14c1-.31,2.09-.43,3.11-.74C31.61,13.38,33.81,13.75,35.71,12.91Z" transform="translate(-0.71 -0.4)"/><path class="cls-12" d="M56.58,17c1.08,1.14,2.71,1.22,3.94,2.05.9.61,2.2.9,2.07,2.41L57,19c-.48-.76-1.29-.5-2-.62s-1.63,0-2.17-.75a14.1,14.1,0,0,1,0-1.72.57.57,0,0,1,.43-.34C54.35,16,56,15.08,56.58,17Z" transform="translate(-0.71 -0.4)"/><path class="cls-13" d="M63.32,54.43a28.26,28.26,0,0,0,6.58-7.62c.39-.33.65-.15.87.22.13,1.23-.7,2.18-.94,3.31.27,1.23-.9,1.37-1.48,2-.34.36-.78.47-1.1,1a4.44,4.44,0,0,1-3.85,2.44C62.86,55.35,63.7,54.85,63.32,54.43Z" transform="translate(-0.71 -0.4)"/><path class="cls-14" d="M36.56,33.37c.84.29.74,1,.74,1.67,0,1.94,0,3.88,0,5.82,0,1.08-.27,1.58-1.45,1.53-2.06-.09-4.12-.06-6.18-.08-.93-1-.06-1.06.59-1.11a20.28,20.28,0,0,1,3.57,0c1.7.16,2.24-.6,2.13-2.2a35.62,35.62,0,0,1,0-3.58C36,34.68,35.91,33.91,36.56,33.37Z" transform="translate(-0.71 -0.4)"/><path class="cls-15" d="M36.56,33.37c0,2.2-.09,4.4,0,6.6,0,1.24-.42,1.67-1.62,1.61-1.52-.08-3.05,0-4.58,0-.55,0-1,0-.65.76a1.9,1.9,0,0,1-1.6-.75c.05-.88.75-.57,1.19-.58,1.6,0,3.2-.08,4.79,0,1.14.06,1.52-.33,1.47-1.48-.07-2.13,0-4.28,0-6.42,0-.39,0-.84.59-.8C36.57,32.52,36.52,33,36.56,33.37Z" transform="translate(-0.71 -0.4)"/><path class="cls-16" d="M73.44,36.31h.4c1-.39,1,.29,1,1a10.86,10.86,0,0,1-1.37,5.83c-.91.29-.94,2.42-2.55,1.23a6.83,6.83,0,0,1,.83-3.28,2.74,2.74,0,0,0,.74-3,1,1,0,0,1,0-.52A3.81,3.81,0,0,1,73.44,36.31Z" transform="translate(-0.71 -0.4)"/><path class="cls-17" d="M16.45,37.93c1.13-.67.42-1.91.32-2.52a4,4,0,0,1,.49-2.32c.07-.78.4-1.28,1.27-1.21A42.29,42.29,0,0,0,18,40.73c-.88.16-1.13-.66-1.64-1.07a1.14,1.14,0,0,1-.13-.47c-.06-.31.55-.54.09-.9A.29.29,0,0,1,16.45,37.93Z" transform="translate(-0.71 -0.4)"/><path class="cls-18" d="M29.3,56.89a16.48,16.48,0,0,0,7.21.81c.53,2.79-.07,5.63.33,8.43l-.37.82c-1-.13-.71-1-.73-1.54-.06-1.51-.08-3,0-4.55s-.5-2-1.8-2h-.61a12.55,12.55,0,0,1-4.93-1.13.88.88,0,0,1,0-.9A.69.69,0,0,1,29.3,56.89Z" transform="translate(-0.71 -0.4)"/><path class="cls-19" d="M18.53,31.88l-1.27,1.21c-.66-1.19.3-2.11.81-2.76,1.2-1.51,1-4.28,3.71-4.47Z" transform="translate(-0.71 -0.4)"/><path class="cls-20" d="M36.12,32.28c-.86,2.18-.37,4.46-.35,6.68,0,1.76-.47,2.3-2.24,2.25s-3.68-.5-5.44.35a2.55,2.55,0,0,1-2-.76c2.6,0,5.2-.08,7.8,0,1.15,0,1.48-.38,1.47-1.51,0-2.74,0-5.49.06-8.24Z" transform="translate(-0.71 -0.4)"/><path class="cls-21" d="M33.31,58.51h.4c1.85,0,2.39.82,2.25,2.67a32.79,32.79,0,0,0,.09,6.57l-.69,1.66c0-2.59-.16-5.19,0-7.77.11-1.84-.66-2.31-2.27-2.34-.87,0-1.85.4-2.63-.37C31.31,58.14,32.42,59.06,33.31,58.51Z" transform="translate(-0.71 -0.4)"/><path class="cls-10" d="M20.11,47.6a4.77,4.77,0,0,1,2,2.81c-.42.36.33,1-.36,1.33a.93.93,0,0,1-.78.12,1.16,1.16,0,0,1-.44-.32,4.29,4.29,0,0,1-1-2.15c0-1.09-.7-.46-1.06-.64-.57-.21-.82-.58-.57-1.19a1.42,1.42,0,0,1,.57-.33A1.71,1.71,0,0,1,20.11,47.6Z" transform="translate(-0.71 -0.4)"/><path class="cls-22" d="M70.57,31.19c.11-.43.06-1.06.66-1.07s.26.65.44.93a4,4,0,0,1,.57,4.05.27.27,0,0,1-.43,0C71.07,33.91,71.14,32.45,70.57,31.19Z" transform="translate(-0.71 -0.4)"/><path class="cls-23" d="M53.83,69l-.44-1.19c-.3-2.89-.07-5.8-.23-8.69a.94.94,0,0,1,.51-.85,2.21,2.21,0,0,1,2,.06c.59,1.13-.58.84-1,1.21-.33.21-.31.55-.31.89,0,2.38,0,4.77,0,7.16C54.34,68,54.76,68.79,53.83,69Z" transform="translate(-0.71 -0.4)"/><path class="cls-19" d="M20.11,47.6H18.46c.32-.85-.74-.64-.89-1.17a2.66,2.66,0,0,1,.27-2.12,1,1,0,0,1,.68-.46A7.46,7.46,0,0,1,20.11,47.6Z" transform="translate(-0.71 -0.4)"/><path class="cls-24" d="M55.78,58.51h-2a.56.56,0,0,1,0-.82A1.28,1.28,0,0,1,55,57.36c1.24.47,2.37-.06,3.51-.42.55-.18,1.05-.56,1.65-.18a.73.73,0,0,1,.23.56A4,4,0,0,1,55.78,58.51Z" transform="translate(-0.71 -0.4)"/><path class="cls-25" d="M36.05,67.75c-.73-2-.3-4-.29-6,0-1.64-.11-2.94-2-3.19,1.93-.43,2.51.35,2.46,2.3s-.47,4.13.3,6.14Z" transform="translate(-0.71 -0.4)"/><path class="cls-6" d="M18.52,43.86l-.46.52a1.22,1.22,0,0,1-.55-.2L17.3,44c-.68-.78-.33-1.92-1-2.72a1.37,1.37,0,0,1,.13-1.71c.85,0,.87,1,1.54,1.19C18.17,41.77,18.35,42.82,18.52,43.86Z" transform="translate(-0.71 -0.4)"/><path class="cls-24" d="M63.32,54.43c1.5.32-.54.88.09,1.25-.61,1.65-1.85,1.58-3.21,1.22h0c-.26-.26,0-.55,0-.83Z" transform="translate(-0.71 -0.4)"/><path class="cls-26" d="M53,17.75c1,.08,2,.18,2.93.21.71,0,1.27.09,1.05,1a13.93,13.93,0,0,1-3.58-.28c-.53-.15-.84-.35-.73-.95Q52.81,17.46,53,17.75Z" transform="translate(-0.71 -0.4)"/><path class="cls-27" d="M53.83,69c.78-2.32.15-4.71.34-7.07.06-.72,0-1.45,0-2.18a.26.26,0,0,1,.44,0c0,3.48,0,7,0,10.44A2,2,0,0,1,53.83,69Z" transform="translate(-0.71 -0.4)"/><path class="cls-27" d="M54.53,1.6c0,3.22,0,6.44.07,9.66,0,.52-.21.66-.63.27-.7-2-.27-3.94-.13-5.91a3.94,3.94,0,0,0,0-2Z" transform="translate(-0.71 -0.4)"/><path class="cls-28" d="M53.77,57.69v.82l-.4.4c.42,2.52.1,5.06.17,7.6,0,.3-.2.46-.52.44l-.38-.81c.4-2.79-.18-5.61.32-8.4Z" transform="translate(-0.71 -0.4)"/><path class="cls-29" d="M60.16,56.06c.48.26.09.55,0,.83-1.31.33-2.64.61-3.93,1A.94.94,0,0,1,55,57.36Z" transform="translate(-0.71 -0.4)"/><path class="cls-30" d="M53.83,3.66c.79,2.65.13,5.37.35,8a.89.89,0,0,1,.16,1c-.27.34-.53.45-.82,0-.73-2.2.13-4.41-.08-6.61Z" transform="translate(-0.71 -0.4)"/><path class="cls-31" d="M53,67c.78-2.65.12-5.37.35-8a20.57,20.57,0,0,1,0,8.87A.73.73,0,0,1,53,67Z" transform="translate(-0.71 -0.4)"/><path class="cls-32" d="M53.44,6.09c.73,2.24.14,4.55.34,6.82a1.42,1.42,0,0,1,.38,1.33c-.18.43-.3,1-1,.55a17.71,17.71,0,0,1-.12-5.34,3.88,3.88,0,0,0,0-1.76Z" transform="translate(-0.71 -0.4)"/><path class="cls-28" d="M72.64,37.93c1.93.77-.19,1.84.16,2.78.1.26-.31,1.15-1,.38,0-.78.07-1.57.11-2.36C72.15,38.47,72.28,38.09,72.64,37.93Z" transform="translate(-0.71 -0.4)"/><path class="cls-13" d="M71,44.37c1.24.47,1.48-1.15,2.48-1.2l.28,0c.75.28.7.78.36,1.36a1.71,1.71,0,0,1-1.8,1,3,3,0,0,1-1.61-.76Z" transform="translate(-0.71 -0.4)"/><path class="cls-19" d="M53,7.69c.78,2.38.13,4.83.35,7.24a.55.55,0,0,1,0,.81H53c-.49-2,.05-4-.3-6Z" transform="translate(-0.71 -0.4)"/><path class="cls-33" d="M53,57.74c-.17,2.8.38,5.62-.32,8.4C52.73,63.34,52.11,60.51,53,57.74Z" transform="translate(-0.71 -0.4)"/><path class="cls-33" d="M36.84,66.13c-.71-2.79-.13-5.62-.33-8.43.87,1.84.23,3.8.4,5.69.07.8,0,1.61,0,2.41A.9.9,0,0,1,36.84,66.13Z" transform="translate(-0.71 -0.4)"/><path class="cls-33" d="M37,9.63q0,3.38,0,6.75c0,.05-.07.09-.11.13l-.28-.37c.2-2.41-.42-4.85.33-7.22C36.88,9.15,36.91,9.39,37,9.63Z" transform="translate(-0.71 -0.4)"/><path class="cls-33" d="M52.67,9.73c.66,2,.14,4,.3,6v2h-.33Z" transform="translate(-0.71 -0.4)"/><path class="cls-26" d="M21.67,51.65c.65-.23-.71-1.23.48-1.24a4.48,4.48,0,0,1,2,2,.51.51,0,0,1-.44.43h-.81A3.75,3.75,0,0,1,21.67,51.65Z" transform="translate(-0.71 -0.4)"/><path class="cls-34" d="M72.64,37.93c0,.49-.23.78-.74.8l-.09-3.62h.43a.85.85,0,0,1,.4.81,1.43,1.43,0,0,1,0,1.62Z" transform="translate(-0.71 -0.4)"/><path class="cls-13" d="M70.63,47.21a.74.74,0,0,0-.73-.4.73.73,0,0,1,.34-.79c.58-.19.6-1.46,1.59-.83h0c.3.3,1.19.25.71,1S71.72,47.75,70.63,47.21Z" transform="translate(-0.71 -0.4)"/><path class="cls-35" d="M31.7,19c.56-.65,1.09-1.41,2-.46A2.47,2.47,0,0,1,31.7,19Z" transform="translate(-0.71 -0.4)"/><path class="cls-7" d="M71.83,45.19c-.88-.41-.52,1.61-1.59.83a1.69,1.69,0,0,1,.43-1.23C71.1,44.8,71.56,44.72,71.83,45.19Z" transform="translate(-0.71 -0.4)"/><path class="cls-36" d="M23.68,52.86l.44-.43a.9.9,0,0,1,.92.78C24.55,53.24,24,53.37,23.68,52.86Z" transform="translate(-0.71 -0.4)"/><path class="cls-37" d="M30.1,14.93c-1.09.13-2.18.29-3.27.4-.67.06-.46.44-.34.81-1,1.57-2.83,1.89-4.19,2.94a11.71,11.71,0,0,0-3.56,4c-1.1,2-2.79,3.82-2.58,6.38-1.43,2.37-1,5.05-1.28,7.62a4.09,4.09,0,0,0,.19,2.42,2.62,2.62,0,0,1,0,.56,7,7,0,0,0,.14,2.37,2.21,2.21,0,0,1-1.94,2.75,7.76,7.76,0,0,1-1.18-2.81c.84-1.1.36-2.3.28-3.48a16.92,16.92,0,0,1,0-3A10,10,0,0,0,13.13,32c.18-6.16,4-13.8,10.15-16.25a22.4,22.4,0,0,1,5.61-1.62C29.64,13.87,30.42,13.57,30.1,14.93Z" transform="translate(-0.71 -0.4)"/><path class="cls-38" d="M23.28,15.74c-1.51,1.62-3.6,2.52-5,4.35-2.93,3.77-4.76,7.81-4.52,12.7a10.05,10.05,0,0,1-.91,3.12c-1,.05-.85-.47-.85-1.26a38.47,38.47,0,0,1,1.63-9.71c.9-3.28,3.21-5.58,5.52-7.84a11.56,11.56,0,0,1,3.72-2.62Z" transform="translate(-0.71 -0.4)"/><path class="cls-39" d="M13.62,24.94a7.58,7.58,0,0,1-.39,3.49,62.66,62.66,0,0,0-1,7c0,.15.38.33.58.5.23,1.48-.36,3,.36,4.49a1.5,1.5,0,0,1-1.1,2A24.59,24.59,0,0,1,12.83,26,2,2,0,0,1,13.62,24.94Z" transform="translate(-0.71 -0.4)"/><path class="cls-40" d="M28.49,56.89v.81c-2,.12-3.55-1-5.25-1.75-.52-.23-.91-.78-1.58-.68A11.27,11.27,0,0,1,18,52.06a1.27,1.27,0,0,1,1.13-.4c.7.05,1.35.35,2,.46,1,2.17,3.54,2.18,5.13,3.55C26.92,56.21,28,56,28.49,56.89Z" transform="translate(-0.71 -0.4)"/><path class="cls-41" d="M13.28,45.17c1.3-.55,1.53-1.49,1.36-2.86-.09-.71-.68-1.67.21-2.36a.53.53,0,0,1,.93.25,8.71,8.71,0,0,1,.38,5.19c-.41,1.61.31,1.68,1.28,2a.58.58,0,0,1,.32.49c-.29.58-.85.62-1.39.68A2.25,2.25,0,0,1,14.79,48,9,9,0,0,1,13.28,45.17Z" transform="translate(-0.71 -0.4)"/><path class="cls-25" d="M21.67,55.27c.22-.11.57-.37.64-.31,1.79,1.54,4.2,1.66,6.19,2.74,1.67-.17,3.16.81,4.81.81-.86.78-1.91.23-2.85.42C27.15,58.64,24.35,57.1,21.67,55.27Z" transform="translate(-0.71 -0.4)"/><path class="cls-42" d="M14.79,48l1.67,0c1.57.89,2.83,2,2.8,4H18A10.7,10.7,0,0,1,14.79,48Z" transform="translate(-0.71 -0.4)"/><path class="cls-38" d="M53.78,14.12V12.91l.4-.4a18.59,18.59,0,0,1,8.28.77,10.36,10.36,0,0,0,2.51.56A22.18,22.18,0,0,1,75.05,23c-.38,1.21.64,2,.94,3a34.75,34.75,0,0,1,1.58,10.47,17.73,17.73,0,0,0,.08,1.79c.11.91.6,1.87-.37,2.61-.59,0-.9-.47-1.23-.88a5.69,5.69,0,0,1-.3-2.77,23,23,0,0,0-6.18-16.82c-2.72-2.93-5.78-5.68-10.36-4.83a6.43,6.43,0,0,0-3.81-.63C54.52,15.07,54.21,14.6,53.78,14.12Z" transform="translate(-0.71 -0.4)"/><path class="cls-43" d="M77,44A23.28,23.28,0,0,1,66.49,56.71a3.23,3.23,0,0,1-.95.23c-.48.17-1,.42-1.48.15-.66-1,.29-1.16.77-1.41a11,11,0,0,0,2.77-2.26,4.7,4.7,0,0,0,2.84-3c-.13-1,1.15-1.1,1.35-1.93,1.4-.32,1.89-1.48,2.39-2.63.71-.46,1-1.26,1.62-1.85a1.94,1.94,0,0,1,.48-.28A.76.76,0,0,1,77,44Z" transform="translate(-0.71 -0.4)"/><path class="cls-21" d="M77.05,36.32c0-4.11-.43-8.13-2.36-11.85-.28-.52-.48-1.17.36-1.48A21.1,21.1,0,0,1,78.3,33.36c.33.67,0,1.45.29,2.13v.45c-.34.65.07,1.41-.31,2.05a6.22,6.22,0,0,1-.78,4,.67.67,0,0,1-.52.18c-.8-.51-.36-.95.07-1.4.77-.8.35-1.61,0-2.42A2.16,2.16,0,0,0,77.05,36.32Z" transform="translate(-0.71 -0.4)"/><path class="cls-44" d="M65,13.84c-1.83,1-3.36-.55-5.09-.67s-3.89.19-5.7-.66V11.7l.42-.44A22.34,22.34,0,0,1,65,13.84Z" transform="translate(-0.71 -0.4)"/><path class="cls-45" d="M54.62,59.74l-.44,0,.4-.41a58.61,58.61,0,0,0,7.68-2,2.77,2.77,0,0,1,1.18.08,1,1,0,0,1,.43.39A13.11,13.11,0,0,1,57,59.71C56.22,59.77,55.42,59.73,54.62,59.74Z" transform="translate(-0.71 -0.4)"/><path class="cls-46" d="M77.05,42h.45c-.11.68.18,1.45-.46,2h-.79C75.59,42.94,76.17,42.39,77.05,42Z" transform="translate(-0.71 -0.4)"/><path class="cls-45" d="M63.81,56.89l1.73,0c-.34.72-1,.78-1.67.83l-.08-.09a.52.52,0,0,1-.14-.62Z" transform="translate(-0.71 -0.4)"/><path class="cls-47" d="M78.59,35.49c-.58-.64-.26-1.41-.29-2.13A2.92,2.92,0,0,1,78.59,35.49Z" transform="translate(-0.71 -0.4)"/><path class="cls-47" d="M78.28,38c.06-.69-.27-1.44.31-2.05A2.72,2.72,0,0,1,78.28,38Z" transform="translate(-0.71 -0.4)"/><path class="cls-48" d="M53.78,14.12c1.16.58,2.44.2,3.62.24,1,0,1.18.47,1.59,1a18.86,18.86,0,0,1,10.39,5.44c1.92,1.9,2.76,4.69,4.45,6.84a1.39,1.39,0,0,1,.09,1.17,1.54,1.54,0,0,1-.43.74c-1,.15-1.36-.76-1.75-1.39a32.46,32.46,0,0,0-9.14-9.57h-.4c-.28-.49-.82-.22-1.2-.4-.9-1.3-2.55-1.13-3.73-1.93-.37-.25-.63.29-.69.72-.66-1.51-2.45,0-3.21-1.21,0-.27,0-.54,0-.81A.85.85,0,0,0,53.78,14.12Z" transform="translate(-0.71 -0.4)"/><path class="cls-15" d="M62.6,18.56c.66,0,1.34-.08,1.87.48a83.33,83.33,0,0,1,7,7.46c.66.87,1,2.13,2,3,.62.8,1.33,1.61,0,2.42C72,30.52,72,28.38,70.57,27c-2.35-2.41-4.41-5.1-7.19-7.07A1.61,1.61,0,0,1,62.6,18.56Z" transform="translate(-0.71 -0.4)"/><path class="cls-13" d="M73.44,31.88c.91-.81-.29-1.62,0-2.42v-.81c1.21.08,1.36,1,1.59,1.93a39.76,39.76,0,0,1,.85,10,2.24,2.24,0,0,1-.16.63c-.77.64-.32,2.72-2.28,1.94h0c-.45-.39-.53-.68,0-1.21,1.46-1.58.61-3.64,1-5.45a2.59,2.59,0,0,0-.52-.19C74.65,34.75,73.79,33.34,73.44,31.88Z" transform="translate(-0.71 -0.4)"/><path class="cls-28" d="M72.64,37.53c-.39-.54,0-1.08,0-1.62a.83.83,0,0,1,.8.4C73.45,36.9,73.45,37.49,72.64,37.53Z" transform="translate(-0.71 -0.4)"/><path class="cls-15" d="M61,18.16c.41-.13.77-.58,1.24-.28.09.07,0,.45,0,.68C61.63,19,61.33,18.51,61,18.16Z" transform="translate(-0.71 -0.4)"/><path class="cls-49" d="M14.45,37.53a44.75,44.75,0,0,1,.27-5.77,5.26,5.26,0,0,1,1.33-2.71.26.26,0,0,1,.4,0l.41.41c-.24,2.34-1.55,4.49-1.22,6.94.09.62-.17,1.4.81,1.53,0,.13,0,.27,0,.4a1.53,1.53,0,0,1-1,.64C14.51,39,14.56,38.19,14.45,37.53Z" transform="translate(-0.71 -0.4)"/><path class="cls-48" d="M16.45,29.05h-.4c-.36-.19-.89-.58-.65-.85,1.34-1.56,1.29-3.93,3.06-5.2a20.12,20.12,0,0,1,7.74-6.09c.37-.19.74-.32,1.09,0-1,2.1-3.09,3.31-4.83,4.45A15.76,15.76,0,0,0,16.45,29.05Z" transform="translate(-0.71 -0.4)"/><path class="cls-50" d="M27.29,17c-3.53,1.15-6,3.87-8.83,6.05.83-3.23,3.77-4.32,6.12-5.93a4,4,0,0,1,1.91-.93c.44,0,.91-.07,1.2.4Z" transform="translate(-0.71 -0.4)"/><path class="cls-51" d="M30.1,14.93c0-.82-.62-.81-1.21-.81.11-.22.21-.62.34-.63,2.16-.22,4.32-.4,6.48-.58-1.16,1.56-3.05.67-4.52,1.3C30.74,14.4,30.51,14.77,30.1,14.93Z" transform="translate(-0.71 -0.4)"/><path class="cls-9" d="M28.49,56.89a26.68,26.68,0,0,1-6.87-3.5c-.53-.39,0-.75-.35-.94s-.62-.36-.4-.8h.8a1.12,1.12,0,0,1,1.2,1.21A16.76,16.76,0,0,0,28.06,56c.52.17,1,.33,1.24.88Z" transform="translate(-0.71 -0.4)"/><path class="cls-52" d="M62.6,57.7a23.44,23.44,0,0,1-8,1.61l1.2-.8c1.59-.23,3.27-.18,4.42-1.61,1.06-.43,2.36-.23,3.21-1.22,2.12-.51,3-2.63,4.81-3.63,1.17.87-.07,1.13-.4,1.62-.91,1.61-2.63,2.2-4,3.22h0C63.5,57.3,62.91,57.29,62.6,57.7Z" transform="translate(-0.71 -0.4)"/><path class="cls-53" d="M71.83,48.82c.09.72-1.35.67-.8,1.62a1.19,1.19,0,0,1-1.6,0,8.65,8.65,0,0,1,1.2-3.23c.87-.39,2.16-.52,1.21-2a2,2,0,0,0,2-.81c.41-.2.72-.71,1.29-.4.48,1.14-.62,1.45-1.09,2.08C73.48,47.13,72.23,47.63,71.83,48.82Z" transform="translate(-0.71 -0.4)"/><path class="cls-8" d="M69.43,50.44H71c-.66,1.48-1.41,2.88-3.21,3.23-.13-.61.94-.91.4-1.62C68,51.05,69.8,51.56,69.43,50.44Z" transform="translate(-0.71 -0.4)"/><path class="cls-7" d="M17.26,47.61c-1.51.23-2.07-.41-1.78-1.9a12.78,12.78,0,0,0,0-5.19c-.09-.41-.23-.57-.61-.57v-.41c-.16-.72.41-.52.76-.61a.8.8,0,0,1,.84.21v.4c.05.56-.19,1.19.4,1.62.29.93-.29,2.12.8,2.82h0C17.45,45.18,17.38,46.4,17.26,47.61Z" transform="translate(-0.71 -0.4)"/><path class="cls-6" d="M16.45,39.14h-.8c-.14-.09-.19-.18-.14-.27s.09-.13.14-.13a.83.83,0,0,1,.81-.41C17.82,38.6,16.2,38.87,16.45,39.14Z" transform="translate(-0.71 -0.4)"/><path class="cls-16" d="M20.87,51.65l.4.8a3.2,3.2,0,0,1-2-.4,16.08,16.08,0,0,0-2.8-4c.43,0,.91.07,1.19-.41a.33.33,0,0,1,.41,0,.73.73,0,0,0,.8.81,18.55,18.55,0,0,0,2,3.23Z" transform="translate(-0.71 -0.4)"/><path class="cls-5" d="M18.06,47.61h-.8c-.71-1.3-.24-2.47.4-3.63l.4.4c0,.92-.88,2.07.78,2.55.3.08-.35.38-.38.68h-.4Z" transform="translate(-0.71 -0.4)"/><path class="cls-9" d="M20.87,51.65c-1.09-.81-2.23-1.59-2-3.23C20.63,48.81,20.21,50.56,20.87,51.65Z" transform="translate(-0.71 -0.4)"/><path class="cls-5" d="M17.66,44c-1.18-.68-1.21-1.69-.8-2.82C17.65,42,16.94,43.17,17.66,44Z" transform="translate(-0.71 -0.4)"/><path class="cls-54" d="M75.05,44l-1.21.4c.45-.59-.15-.84-.4-1.2,1.66.32.87-1.82,2-2,1.41.83.14,1.83.16,2.75A.39.39,0,0,1,75.05,44Z" transform="translate(-0.71 -0.4)"/><path class="cls-41" d="M15.65,38.74v.4a.83.83,0,0,0-.8.4c-.34-.63-1-1.19-.4-2C15,37.8,14.77,38.81,15.65,38.74Z" transform="translate(-0.71 -0.4)"/><path class="cls-11" d="M75.45,40.75a45.17,45.17,0,0,0-.81-10.11,4.25,4.25,0,0,0-1.2-2c.06-.19.23-.47.17-.56-1.91-2.33-2.82-5.39-5-7.45a20.25,20.25,0,0,0-8.06-4.5A2.69,2.69,0,0,1,59,15.33c3.36-1.28,5.83.45,8.41,2.29,3.89,2.76,6,6.81,7.73,11a15.68,15.68,0,0,1,1.14,6.55c-.09,1.6,0,3.21,0,4.82C76.56,40.8,76.29,41.07,75.45,40.75Z" transform="translate(-0.71 -0.4)"/><path class="cls-55" d="M75.45,40.75a.73.73,0,0,0,.8-.8.73.73,0,0,1,.8.8c.14.41-.46.81,0,1.21-.36.64-1,1.17-.8,2h0a.53.53,0,0,1-.8,0c-.29-.94.53-1.88,0-2.82Z" transform="translate(-0.71 -0.4)"/><path class="cls-47" d="M77.05,36.32a1.35,1.35,0,0,1,0,2Z" transform="translate(-0.71 -0.4)"/><path class="cls-8" d="M71.83,48.82c.13-1.33,1.1-2,2-2.82.14-.17.27-.17.4,0C74.07,47.48,73.7,48.8,71.83,48.82Z" transform="translate(-0.71 -0.4)"/><path class="cls-46" d="M74.24,46h-.4c.28-.75,1.25-1.08,1.21-2h1.2C75.52,44.59,75.73,46.15,74.24,46Z" transform="translate(-0.71 -0.4)"/><path class="cls-43" d="M62.6,57.7c0-.82.62-.81,1.21-.81,0,.27,0,.53,0,.79Z" transform="translate(-0.71 -0.4)"/></g></g></g></svg>