<svg xmlns="http://www.w3.org/2000/svg" xmlns:xlink="http://www.w3.org/1999/xlink" viewBox="0 0 380.03 96.41"><defs><style>.cls-1{fill:none;}.cls-2{fill:#fff;}.cls-3{clip-path:url(#clip-path);}</style><clipPath id="clip-path" transform="translate(-0.71 -0.4)"><rect class="cls-1" width="90.31" height="96.05"/></clipPath></defs><g id="Layer_2" data-name="Layer 2"><g id="Camada_2" data-name="Camada 2"><path class="cls-2" d="M97.21,13.56h27.25v5.38a7.67,7.67,0,0,0-2.34-.35h-12.6V34.37h13.24a6.14,6.14,0,0,0,1.7-.28v5.45a8.21,8.21,0,0,0-2.48-.29H109.52V55.32h12.25a9.87,9.87,0,0,0,2.69-.36v5.81H97.28a7.27,7.27,0,0,0,.36-2.34V15.9A5.62,5.62,0,0,0,97.21,13.56Z" transform="translate(-0.71 -0.4)"/><path class="cls-2" d="M131.25,22.69h11.11v4.25q3.75-5.24,10.9-5.24,5.38,0,8.32,2.8t2.94,7.89v26a8.21,8.21,0,0,0,.07,1.24,4.14,4.14,0,0,0,.35,1.1H153.05a6.85,6.85,0,0,0,.36-2.34V34.58q0-5.23-4.86-5.24A5.6,5.6,0,0,0,144.3,31a6.42,6.42,0,0,0-1.58,4.63V58.43a9,9,0,0,0,.28,2.34H131.25a7.27,7.27,0,0,0,.36-2.34V25A7.27,7.27,0,0,0,131.25,22.69Z" transform="translate(-0.71 -0.4)"/><path class="cls-2" d="M173.65,65.3l-2.34-7.72,7.15-5.23a13.53,13.53,0,0,1-5.52-5.42,18.61,18.61,0,0,1-1.63-8.5q0-7.59,4.53-12T188.16,22h3.75a12.06,12.06,0,0,0,2.3-3.07,9.17,9.17,0,0,0,.53-3.51h9.41a10.17,10.17,0,0,1-1.27,4.07,22.94,22.94,0,0,1-3.75,3.93,19.61,19.61,0,0,1,6.3,6.39,17.46,17.46,0,0,1,1.91,8.58,16.73,16.73,0,0,1-4.18,11.72Q199,54.68,192,54.68a24,24,0,0,0-3.08.11,5,5,0,0,0-1.31.53l-5.73,3.33q4.38-1.07,7.32-1.49a38.19,38.19,0,0,1,5.35-.43q6.51,0,10.26,2.06c2.5,1.37,3.75,3.25,3.75,5.66q0,4-4.21,6.16t-12.21,2.12a51.1,51.1,0,0,1-8.35-.64,94.8,94.8,0,0,1-10.34-2.48V68.2a58.85,58.85,0,0,0,6.77,1.41,41.1,41.1,0,0,0,5.9.43,16,16,0,0,0,6.06-.92c1.43-.61,2.15-1.51,2.15-2.69s-.79-2.05-2.37-2.76a15.67,15.67,0,0,0-6.33-1.06,29.79,29.79,0,0,0-6.09.49A29.54,29.54,0,0,0,173.65,65.3Zm15.64-38.08q-6.3,0-6.3,10.58,0,11.72,6.16,11.71,6.36,0,6.37-11.35Q195.52,27.23,189.29,27.22Z" transform="translate(-0.71 -0.4)"/><path class="cls-2" d="M244.56,51.92l1.21,6.23a38.63,38.63,0,0,1-6.87,2.62,27.66,27.66,0,0,1-6.65.71q-9.7,0-15-5t-5.31-14.37q0-9.55,4.88-15t13.59-5.45q17.19,0,17.2,20H223.4q0,7.86,2.55,11.39T234,56.52a12.86,12.86,0,0,0,5.06-1A24.55,24.55,0,0,0,244.56,51.92ZM223.4,36.63h12.53q0-5.37-1.47-7.75A4.9,4.9,0,0,0,230,26.51a5,5,0,0,0-4.48,2.41C224.49,30.52,223.78,33.09,223.4,36.63Z" transform="translate(-0.71 -0.4)"/><path class="cls-2" d="M264.66,57.58V69.12a5.6,5.6,0,0,0,.43,2.33H253.2a5.21,5.21,0,0,0,.28-1.3c.05-.5.07-.84.07-1V25a7.56,7.56,0,0,0-.35-2.34h11V26.8q4-5.1,9.65-5.1a11.71,11.71,0,0,1,10,5.1q3.69,5.09,3.7,14.08,0,9.48-3.83,15a12.05,12.05,0,0,1-10.47,5.53,12.25,12.25,0,0,1-4.85-.85A11,11,0,0,1,264.66,57.58ZM270.4,28a4.87,4.87,0,0,0-4.74,3q-1.43,3-1.42,10.05,0,8,1.31,11.36T270,55.74q6.09,0,6.09-14.65,0-6.86-1.38-10A4.57,4.57,0,0,0,270.4,28Z" transform="translate(-0.71 -0.4)"/><path class="cls-2" d="M293.68,9.88h11.75a8.53,8.53,0,0,0-.28,2.34V58.43a7.56,7.56,0,0,0,.35,2.34H293.68a7.27,7.27,0,0,0,.36-2.34V12.22A7.27,7.27,0,0,0,293.68,9.88Z" transform="translate(-0.71 -0.4)"/><path class="cls-2" d="M335.44,60.77V56.52a15.9,15.9,0,0,1-4.88,3.82,14.21,14.21,0,0,1-5.88,1.07q-5.44,0-8.42-2.84c-2-1.88-3-4.55-3-8V25a7.27,7.27,0,0,0-.36-2.34h11.82A7.12,7.12,0,0,0,324.4,25V48.59a5.62,5.62,0,0,0,1.27,3.9,4.63,4.63,0,0,0,3.61,1.41A5.56,5.56,0,0,0,335,48.17V25a6.86,6.86,0,0,0-.35-2.34h11.82A4.88,4.88,0,0,0,346.2,24c-.05.5-.07.84-.07,1v33.4a7.67,7.67,0,0,0,.35,2.34Z" transform="translate(-0.71 -0.4)"/><path class="cls-2" d="M351.79,58.15l1.62-6.58a30.06,30.06,0,0,0,6,3.78,12.93,12.93,0,0,0,5.17,1,6.55,6.55,0,0,0,4.28-1.31,4.23,4.23,0,0,0,1.59-3.43q0-2.34-2.83-3.89l-1.06-.5-5.31-2.12a15.5,15.5,0,0,1-6.62-4.43,10.32,10.32,0,0,1-2-6.54,11.15,11.15,0,0,1,4.17-9q4.19-3.47,11-3.47a25.39,25.39,0,0,1,5.06.5,62.74,62.74,0,0,1,6.76,1.91L378,30.26a26.21,26.21,0,0,0-4.91-2.83,11.63,11.63,0,0,0-4.36-.85,6.77,6.77,0,0,0-4.21,1.21A3.85,3.85,0,0,0,363,31a2.86,2.86,0,0,0,1.34,2.73,36.88,36.88,0,0,0,4,1.77q2.65,1,5.35,2a11.57,11.57,0,0,1,4.88,3.68,10.89,10.89,0,0,1,2.19,7.08q0,6.22-4.21,9.7c-2.8,2.31-6.76,3.47-11.85,3.47a24.72,24.72,0,0,1-6-.64A43,43,0,0,1,351.79,58.15Z" transform="translate(-0.71 -0.4)"/><path class="cls-2" d="M107.06,90.77l.35,1.81a11.29,11.29,0,0,1-2,.76,7.86,7.86,0,0,1-1.93.21,6.11,6.11,0,0,1-4.36-1.46,5.49,5.49,0,0,1-1.54-4.18A6.29,6.29,0,0,1,99,83.56,5,5,0,0,1,103,82q5,0,5,5.8h-7a5.73,5.73,0,0,0,.74,3.31,2.69,2.69,0,0,0,2.34,1,3.6,3.6,0,0,0,1.47-.28A7.33,7.33,0,0,0,107.06,90.77Zm-6.14-4.44h3.63a4.52,4.52,0,0,0-.42-2.25,1.56,1.56,0,0,0-2.6,0A5.32,5.32,0,0,0,100.92,86.33Z" transform="translate(-0.71 -0.4)"/><path class="cls-2" d="M109.63,82.28h3.23v1.23A3.67,3.67,0,0,1,116,82a3.36,3.36,0,0,1,2.41.81,3,3,0,0,1,.85,2.3v7.56a3.21,3.21,0,0,0,0,.36,1.35,1.35,0,0,0,.11.32H116a2,2,0,0,0,.11-.68V85.73c0-1-.47-1.52-1.41-1.52a1.61,1.61,0,0,0-1.24.49A1.89,1.89,0,0,0,113,86v6.62a2.43,2.43,0,0,0,.09.68h-3.42a2.11,2.11,0,0,0,.11-.68V83A2.11,2.11,0,0,0,109.63,82.28Z" transform="translate(-0.71 -0.4)"/><path class="cls-2" d="M122,94.66l-.68-2.24,2.07-1.53a3.9,3.9,0,0,1-1.6-1.57,5.35,5.35,0,0,1-.47-2.47,4.68,4.68,0,0,1,1.31-3.49,4.9,4.9,0,0,1,3.58-1.29h1.09a3.64,3.64,0,0,0,.67-.89,2.67,2.67,0,0,0,.15-1h2.74a3.15,3.15,0,0,1-.37,1.19,7.4,7.4,0,0,1-1.09,1.14,5.62,5.62,0,0,1,1.83,1.85,5.11,5.11,0,0,1,.55,2.5,4.85,4.85,0,0,1-1.21,3.4,4.17,4.17,0,0,1-3.25,1.33,7.13,7.13,0,0,0-.89,0,1.42,1.42,0,0,0-.38.16l-1.67,1c.85-.2,1.56-.35,2.13-.43a11.17,11.17,0,0,1,1.55-.12,6.35,6.35,0,0,1,3,.59,1.82,1.82,0,0,1,1.09,1.65,1.94,1.94,0,0,1-1.22,1.79,8.15,8.15,0,0,1-3.55.61,15.37,15.37,0,0,1-2.42-.18,25.75,25.75,0,0,1-3-.72V95.5a16.45,16.45,0,0,0,2,.41,12.51,12.51,0,0,0,1.71.12,4.6,4.6,0,0,0,1.76-.26q.63-.27.63-.78t-.69-.81a4.68,4.68,0,0,0-1.84-.3,8.41,8.41,0,0,0-1.77.14A8.53,8.53,0,0,0,122,94.66Zm4.54-11.06c-1.22,0-1.83,1-1.83,3.07,0,2.27.6,3.4,1.79,3.4s1.85-1.1,1.85-3.3S127.7,83.6,126.49,83.6Z" transform="translate(-0.71 -0.4)"/><path class="cls-2" d="M142.54,90.77l.35,1.81a11.29,11.29,0,0,1-2,.76,7.86,7.86,0,0,1-1.93.21,6.11,6.11,0,0,1-4.36-1.46,5.49,5.49,0,0,1-1.54-4.18,6.29,6.29,0,0,1,1.41-4.35,5,5,0,0,1,4-1.59q5,0,5,5.8h-7a5.73,5.73,0,0,0,.74,3.31,2.69,2.69,0,0,0,2.34,1,3.6,3.6,0,0,0,1.47-.28A7.33,7.33,0,0,0,142.54,90.77Zm-6.14-4.44H140a4.5,4.5,0,0,0-.43-2.25,1.42,1.42,0,0,0-1.3-.69,1.44,1.44,0,0,0-1.3.7A5.32,5.32,0,0,0,136.4,86.33Z" transform="translate(-0.71 -0.4)"/><path class="cls-2" d="M145.11,82.28h3.23v1.23A3.67,3.67,0,0,1,151.51,82a3.36,3.36,0,0,1,2.41.81,3,3,0,0,1,.86,2.3v7.56a1.84,1.84,0,0,0,0,.36,1.28,1.28,0,0,0,.1.32h-3.45a2.27,2.27,0,0,0,.1-.68V85.73c0-1-.47-1.52-1.41-1.52a1.61,1.61,0,0,0-1.24.49,1.89,1.89,0,0,0-.45,1.34v6.62a2.44,2.44,0,0,0,.08.68h-3.42a2.11,2.11,0,0,0,.11-.68V83A2.11,2.11,0,0,0,145.11,82.28Z" transform="translate(-0.71 -0.4)"/><path class="cls-2" d="M157.08,78.56h3.43a2,2,0,0,0-.1.68v4.13a3.72,3.72,0,0,1,3.08-1.4,3.35,3.35,0,0,1,2.4.81,3,3,0,0,1,.85,2.28v7.6a2.2,2.2,0,0,0,.1.68h-3.43a2,2,0,0,0,.1-.68V85.92c0-1.15-.46-1.73-1.39-1.73a1.64,1.64,0,0,0-1.26.48,1.81,1.81,0,0,0-.45,1.31v6.68a2.11,2.11,0,0,0,.1.68h-3.43a2.2,2.2,0,0,0,.1-.68V79.24A2,2,0,0,0,157.08,78.56Z" transform="translate(-0.71 -0.4)"/><path class="cls-2" d="M178.58,91.26v1.61a4.86,4.86,0,0,1-1.07.52,3.33,3.33,0,0,1-1,.14,2.84,2.84,0,0,1-1.39-.28,2,2,0,0,1-.78-1,3.91,3.91,0,0,1-2.92,1.28,2.9,2.9,0,0,1-2.22-.87,3.21,3.21,0,0,1-.83-2.32,2.93,2.93,0,0,1,.87-2.43,6.55,6.55,0,0,1,1.35-.88,20.64,20.64,0,0,1,2-.66c1-.3,1.56-.79,1.56-1.48a1.19,1.19,0,0,0-.48-1,2.14,2.14,0,0,0-1.31-.36,3.3,3.3,0,0,0-1.25.21,7.43,7.43,0,0,0-1.38.84l-.39-1.81a14.8,14.8,0,0,1,2.11-.61,10,10,0,0,1,1.9-.17q4,0,4,2.75v6c0,.5.18.74.55.74A1.27,1.27,0,0,0,178.58,91.26Zm-4.4-1.33V87.19c-.14.09-.31.18-.52.29l-1.3.64a1.82,1.82,0,0,0-1,1.83c0,1,.44,1.56,1.31,1.56a1.41,1.41,0,0,0,1.05-.45A1.56,1.56,0,0,0,174.18,89.93Z" transform="translate(-0.71 -0.4)"/><path class="cls-2" d="M179.83,82.28h3.23v1.17a2.39,2.39,0,0,1,.94-1.14,3.62,3.62,0,0,1,1.72-.32v2.35l-.54,0c-1.34,0-2,.72-2,2.15v6.19a2,2,0,0,0,.1.68h-3.44a2.11,2.11,0,0,0,.11-.68V83A2,2,0,0,0,179.83,82.28Z" transform="translate(-0.71 -0.4)"/><path class="cls-2" d="M188.78,79.28c1.15,0,1.72.38,1.72,1.13s-.58,1.15-1.74,1.15-1.67-.38-1.67-1.15a.94.94,0,0,1,.45-.82A2.17,2.17,0,0,1,188.78,79.28Zm-1.69,3h3.44a2.11,2.11,0,0,0-.11.68v9.68a2.88,2.88,0,0,0,.08.68h-3.41a2.11,2.11,0,0,0,.1-.68V83A2,2,0,0,0,187.09,82.3Z" transform="translate(-0.71 -0.4)"/><path class="cls-2" d="M202.3,91.26v1.61a5,5,0,0,1-1.06.52,3.42,3.42,0,0,1-1,.14,2.88,2.88,0,0,1-1.4-.28,2.11,2.11,0,0,1-.78-1,3.89,3.89,0,0,1-2.92,1.28,2.91,2.91,0,0,1-2.22-.87,3.21,3.21,0,0,1-.82-2.32,3,3,0,0,1,.86-2.43A7.14,7.14,0,0,1,194.3,87a20.64,20.64,0,0,1,2-.66c1-.3,1.57-.79,1.57-1.48a1.2,1.2,0,0,0-.49-1,2.11,2.11,0,0,0-1.3-.36,3.35,3.35,0,0,0-1.26.21,7.1,7.1,0,0,0-1.37.84l-.39-1.81a14.36,14.36,0,0,1,2.1-.61,10.09,10.09,0,0,1,1.9-.17q4,0,4,2.75v6c0,.5.19.74.56.74A1.24,1.24,0,0,0,202.3,91.26Zm-4.39-1.33V87.19c-.14.09-.32.18-.53.29l-1.29.64a1.83,1.83,0,0,0-1,1.83q0,1.56,1.32,1.56a1.37,1.37,0,0,0,1-.45A1.57,1.57,0,0,0,197.91,89.93Z" transform="translate(-0.71 -0.4)"/><path class="cls-2" d="M218.79,90.77l.35,1.81a11.29,11.29,0,0,1-2,.76,7.86,7.86,0,0,1-1.93.21,6.09,6.09,0,0,1-4.36-1.46,5.49,5.49,0,0,1-1.55-4.18,6.29,6.29,0,0,1,1.42-4.35,5,5,0,0,1,4-1.59q5,0,5,5.8h-7a5.73,5.73,0,0,0,.74,3.31,2.69,2.69,0,0,0,2.34,1,3.6,3.6,0,0,0,1.47-.28A7.33,7.33,0,0,0,218.79,90.77Zm-6.14-4.44h3.63a4.52,4.52,0,0,0-.42-2.25,1.56,1.56,0,0,0-2.6,0A5.32,5.32,0,0,0,212.65,86.33Z" transform="translate(-0.71 -0.4)"/><path class="cls-2" d="M235.65,91v1.93a10.21,10.21,0,0,1-1.58.51,8.15,8.15,0,0,1-1.57.13A5.17,5.17,0,0,1,228.56,92a6.71,6.71,0,0,1,.1-8.43A5.58,5.58,0,0,1,232.85,82a9.51,9.51,0,0,1,2.8.48v2a4.12,4.12,0,0,0-2.41-1,2.3,2.3,0,0,0-2.05,1.11,7.25,7.25,0,0,0,0,6.26,2.26,2.26,0,0,0,2,1.08,3.06,3.06,0,0,0,1.12-.2A7.71,7.71,0,0,0,235.65,91Z" transform="translate(-0.71 -0.4)"/><path class="cls-2" d="M242,82a5,5,0,0,1,3.87,1.52,7.15,7.15,0,0,1,0,8.47A5,5,0,0,1,242,93.53,4.92,4.92,0,0,1,238.16,92a6.25,6.25,0,0,1-1.38-4.33,5.84,5.84,0,0,1,1.4-4.16A5,5,0,0,1,242,82Zm0,1.34a1.52,1.52,0,0,0-1.46,1,9.19,9.19,0,0,0-.45,3.37,9.25,9.25,0,0,0,.45,3.38,1.51,1.51,0,0,0,2.89,0,9.06,9.06,0,0,0,.46-3.35,14.24,14.24,0,0,0-.14-2,7.54,7.54,0,0,0-.45-1.72A1.27,1.27,0,0,0,242.06,83.33Z" transform="translate(-0.71 -0.4)"/><path class="cls-2" d="M249.13,82.28h3.23v1.23A3.67,3.67,0,0,1,255.53,82a3.36,3.36,0,0,1,2.41.81,3,3,0,0,1,.85,2.3v7.56a1.73,1.73,0,0,0,0,.36,1,1,0,0,0,.1.32h-3.46a2,2,0,0,0,.11-.68V85.73c0-1-.47-1.52-1.41-1.52a1.61,1.61,0,0,0-1.24.49,1.89,1.89,0,0,0-.46,1.34v6.62a2.43,2.43,0,0,0,.09.68h-3.42a2.11,2.11,0,0,0,.11-.68V83A2.11,2.11,0,0,0,249.13,82.28Z" transform="translate(-0.71 -0.4)"/><path class="cls-2" d="M260.44,92.58l.47-1.91a8.94,8.94,0,0,0,1.75,1.1,3.79,3.79,0,0,0,1.5.3,1.94,1.94,0,0,0,1.25-.38,1.27,1.27,0,0,0,.46-1,1.32,1.32,0,0,0-.82-1.13l-.31-.15-1.54-.61a4.51,4.51,0,0,1-1.93-1.29,3,3,0,0,1-.58-1.9A3.22,3.22,0,0,1,261.9,83a4.84,4.84,0,0,1,3.19-1,7.19,7.19,0,0,1,1.47.15,18.43,18.43,0,0,1,2,.55l-.45,1.79a7.72,7.72,0,0,0-1.43-.82,3.27,3.27,0,0,0-1.27-.25,2,2,0,0,0-1.22.35,1.12,1.12,0,0,0-.46.95.83.83,0,0,0,.39.79,11.46,11.46,0,0,0,1.16.51l1.55.59a3.31,3.31,0,0,1,1.42,1.07,3.1,3.1,0,0,1,.64,2,3.46,3.46,0,0,1-1.22,2.82,5.31,5.31,0,0,1-3.45,1,7.16,7.16,0,0,1-1.74-.19A11.56,11.56,0,0,1,260.44,92.58Z" transform="translate(-0.71 -0.4)"/><path class="cls-2" d="M276.89,93.34V92.11a4.89,4.89,0,0,1-1.42,1.11,4.22,4.22,0,0,1-1.71.31,3.43,3.43,0,0,1-2.45-.83,3.07,3.07,0,0,1-.86-2.32V83a2.11,2.11,0,0,0-.1-.68h3.43a2,2,0,0,0-.1.68V89.8a1.6,1.6,0,0,0,.37,1.13,1.32,1.32,0,0,0,1.05.42,1.61,1.61,0,0,0,1.19-.48,1.58,1.58,0,0,0,.47-1.19V83a2,2,0,0,0-.1-.68h3.43a1.42,1.42,0,0,0-.08.38c0,.14,0,.25,0,.3v9.7a2.2,2.2,0,0,0,.1.68Z" transform="translate(-0.71 -0.4)"/><path class="cls-2" d="M282.29,78.56h3.42a2.29,2.29,0,0,0-.09.68V92.66a2.11,2.11,0,0,0,.11.68h-3.44a2.11,2.11,0,0,0,.11-.68V79.24A2.06,2.06,0,0,0,282.29,78.56Z" transform="translate(-0.71 -0.4)"/><path class="cls-2" d="M288.19,83.72h-1.38V82.28h1.38V80.61l3.29-.32-.06.74v1.25H293v1.44h-1.58V91c0,.55.23.82.69.82a1.82,1.82,0,0,0,.89-.31v1.54a7.94,7.94,0,0,1-1.17.37,4.6,4.6,0,0,1-1,.11c-1.75,0-2.63-.72-2.63-2.14Z" transform="translate(-0.71 -0.4)"/><path class="cls-2" d="M299.33,82a5,5,0,0,1,3.87,1.52,7.11,7.11,0,0,1,0,8.47,5.62,5.62,0,0,1-7.75,0,6.25,6.25,0,0,1-1.38-4.33,5.88,5.88,0,0,1,1.4-4.16A5,5,0,0,1,299.33,82Zm0,1.34a1.51,1.51,0,0,0-1.46,1,8.94,8.94,0,0,0-.46,3.37,9,9,0,0,0,.46,3.38,1.5,1.5,0,0,0,2.88,0,9,9,0,0,0,.47-3.35,12.84,12.84,0,0,0-.15-2,6.63,6.63,0,0,0-.45-1.72A1.26,1.26,0,0,0,299.36,83.33Z" transform="translate(-0.71 -0.4)"/><path class="cls-2" d="M306.43,82.28h3.22v1.17a2.39,2.39,0,0,1,.94-1.14,3.65,3.65,0,0,1,1.72-.32v2.35l-.54,0c-1.34,0-2,.72-2,2.15v6.19a2,2,0,0,0,.1.68h-3.43a2.11,2.11,0,0,0,.1-.68V83A2,2,0,0,0,306.43,82.28Z" transform="translate(-0.71 -0.4)"/><path class="cls-2" d="M315.37,79.28c1.15,0,1.73.38,1.73,1.13s-.59,1.15-1.75,1.15-1.67-.38-1.67-1.15a.93.93,0,0,1,.46-.82A2.11,2.11,0,0,1,315.37,79.28Zm-1.69,3h3.44A2.11,2.11,0,0,0,317,83v9.68a2.43,2.43,0,0,0,.09.68h-3.42a2.11,2.11,0,0,0,.11-.68V83A2,2,0,0,0,313.68,82.3Z" transform="translate(-0.71 -0.4)"/><path class="cls-2" d="M328.9,91.26v1.61a5.08,5.08,0,0,1-1.07.52,3.42,3.42,0,0,1-1,.14,2.88,2.88,0,0,1-1.4-.28,2.11,2.11,0,0,1-.78-1,3.89,3.89,0,0,1-2.92,1.28,2.91,2.91,0,0,1-2.22-.87,3.21,3.21,0,0,1-.82-2.32,3,3,0,0,1,.86-2.43,7.14,7.14,0,0,1,1.35-.88,20.21,20.21,0,0,1,2.05-.66c1-.3,1.56-.79,1.56-1.48a1.17,1.17,0,0,0-.49-1,2.11,2.11,0,0,0-1.3-.36,3.39,3.39,0,0,0-1.26.21,7.1,7.1,0,0,0-1.37.84l-.39-1.81a14.36,14.36,0,0,1,2.1-.61A10.12,10.12,0,0,1,323.7,82q4,0,4,2.75v6c0,.5.19.74.56.74A1.27,1.27,0,0,0,328.9,91.26Zm-4.4-1.33V87.19a5.78,5.78,0,0,1-.53.29l-1.29.64a1.83,1.83,0,0,0-1,1.83q0,1.56,1.32,1.56a1.41,1.41,0,0,0,1.05-.45A1.6,1.6,0,0,0,324.5,89.93Z" transform="translate(-0.71 -0.4)"/><path class="cls-2" d="M344.23,93.34h-7.79a2.11,2.11,0,0,0,.1-.68V80.31a2.07,2.07,0,0,0-.1-.68h3.68a2,2,0,0,0-.1.68V91.76h3.39l.47,0a2.55,2.55,0,0,0,.35-.11Z" transform="translate(-0.71 -0.4)"/><path class="cls-2" d="M345.65,83.72h-1.38V82.28h1.38V80.61l3.29-.32-.06.74v1.25h1.58v1.44h-1.58V91c0,.55.23.82.69.82a1.82,1.82,0,0,0,.89-.31v1.54a8.76,8.76,0,0,1-1.17.37,4.67,4.67,0,0,1-1,.11c-1.75,0-2.63-.72-2.63-2.14Z" transform="translate(-0.71 -0.4)"/><path class="cls-2" d="M358.27,93.34V92.11a4.75,4.75,0,0,1-1.3,1.11,3.32,3.32,0,0,1-1.47.31,2.91,2.91,0,0,1-2.57-1.07,7.3,7.3,0,0,1-1.07-2.32,9.53,9.53,0,0,1-.33-2.47,7,7,0,0,1,1.09-4.2,3.54,3.54,0,0,1,3-1.5,3.2,3.2,0,0,1,2.55,1.11V79.24a2,2,0,0,0-.1-.68h3.39a2.07,2.07,0,0,0-.1.68V92.66a2.2,2.2,0,0,0,.1.68Zm-1.58-9.7c-1.22,0-1.83,1.35-1.83,4.07a7.69,7.69,0,0,0,.44,2.94,1.41,1.41,0,0,0,1.27,1,1.42,1.42,0,0,0,1.35-.93,7.43,7.43,0,0,0,.43-3,9,9,0,0,0-.4-3.15A1.33,1.33,0,0,0,356.69,83.64Z" transform="translate(-0.71 -0.4)"/><path class="cls-2" d="M373.18,91.26v1.61a5.08,5.08,0,0,1-1.07.52,3.42,3.42,0,0,1-1,.14,2.88,2.88,0,0,1-1.4-.28,2.11,2.11,0,0,1-.78-1A3.89,3.89,0,0,1,366,93.53a2.91,2.91,0,0,1-2.22-.87,3.21,3.21,0,0,1-.82-2.32,3,3,0,0,1,.86-2.43,7.14,7.14,0,0,1,1.35-.88,20.21,20.21,0,0,1,2.05-.66c1-.3,1.56-.79,1.56-1.48a1.17,1.17,0,0,0-.49-1,2.11,2.11,0,0,0-1.3-.36,3.35,3.35,0,0,0-1.26.21,7.1,7.1,0,0,0-1.37.84L364,82.77a14.36,14.36,0,0,1,2.1-.61A10.09,10.09,0,0,1,368,82q4,0,4,2.75v6c0,.5.19.74.56.74A1.27,1.27,0,0,0,373.18,91.26Zm-4.4-1.33V87.19a5.78,5.78,0,0,1-.53.29l-1.29.64A1.83,1.83,0,0,0,366,90q0,1.56,1.32,1.56a1.41,1.41,0,0,0,1.05-.45A1.6,1.6,0,0,0,368.78,89.93Z" transform="translate(-0.71 -0.4)"/><path class="cls-2" d="M376.16,90.11a1.92,1.92,0,0,1,1.31.46,1.52,1.52,0,0,1,.52,1.22,1.62,1.62,0,0,1-.5,1.22,1.74,1.74,0,0,1-1.27.47,2,2,0,0,1-1.39-.46,1.56,1.56,0,0,1-.52-1.23,1.58,1.58,0,0,1,.51-1.2A1.88,1.88,0,0,1,376.16,90.11Z" transform="translate(-0.71 -0.4)"/><g class="cls-3"><path class="cls-2" d="M50.16.4q0,46.7,0,93.4c0,1.67-.24,2.42-2.13,2.25a45.71,45.71,0,0,0-6.62,0c-1.47.09-1.77-.47-1.74-1.83.07-4.37,0-8.74,0-13.11V.4Z" transform="translate(-0.71 -0.4)"/><path class="cls-2" d="M35.32.4l0,1.6a56.33,56.33,0,0,1,.49,7c-.08,2.19-.58,2.83-2.71,2.85a19.22,19.22,0,0,0-9.66,2.85A21.37,21.37,0,0,0,13.78,25.4c-2.64,5.33-2.45,10.88-1.3,16.5a12.17,12.17,0,0,0,1.08,3,29.17,29.17,0,0,0,1.54,2.93,18.33,18.33,0,0,0,3.21,4,19.11,19.11,0,0,0,3.77,3.24A23.71,23.71,0,0,0,31,58.65c4.86.38,4.84.38,4.88,5.44a21.08,21.08,0,0,1-.53,5.32c-.14,1.24-1.11.78-1.7.72C20.6,68.81,10.57,62.68,4.35,50.92.89,44.38.12,37.28,1.09,29.94A33.11,33.11,0,0,1,8.45,13.27,33.92,33.92,0,0,1,24.11,2.34,85,85,0,0,1,32.51.4Z" transform="translate(-0.71 -0.4)"/><path class="cls-2" d="M54.53,1.6C54.63.35,55.6.79,56.2.83A35.09,35.09,0,0,1,73.28,6.49,33.24,33.24,0,0,1,86.52,22.74a34.21,34.21,0,0,1,1.94,18.82A34.36,34.36,0,0,1,77,61.93c-6.38,5.46-13.76,8.68-22.38,8.25-1-3.36-.65-6.77-.37-10.17.47-.85,1.31-.83,2.09-.82a17.22,17.22,0,0,0,7.1-1.62,14.53,14.53,0,0,0,1.9-.93A21.49,21.49,0,0,0,75.91,45.45c.24-.55.57-1.05.78-1.61a9.71,9.71,0,0,0,.38-2,12,12,0,0,0,.82-3.79,5.87,5.87,0,0,0,.25-2c0-.2,0-.4,0-.59a5.69,5.69,0,0,0-.24-2,25.52,25.52,0,0,0-3.15-10,23.14,23.14,0,0,0-10.26-9.32,28.17,28.17,0,0,0-8.11-2.18c-.77-.09-1.64,0-2.12-.88A30.63,30.63,0,0,1,54.53,1.6Z" transform="translate(-0.71 -0.4)"/><path class="cls-2" d="M26.07,40.8c-2.74-.15-4.48-2.2-4.65-5a4.84,4.84,0,0,1,4.25-5.3c3-.54,6.11-.14,9.17-.18.43,0,.46.39.56.7.81,2.75.41,5.57.44,8.37A1.68,1.68,0,0,1,34,41.28C31.34,41.31,28.67,41.56,26.07,40.8Z" transform="translate(-0.71 -0.4)"/></g></g></g></svg>